<svg xmlns="http://www.w3.org/2000/svg" xmlns:xlink="http://www.w3.org/1999/xlink" width="252" height="319" viewBox="0 0 252 319">
  <defs>
    <clipPath id="clip-path">
      <rect id="Rectangle_98" data-name="Rectangle 98" width="252" height="319" transform="translate(168.427 129.317)" fill="#5977bb"/>
    </clipPath>
    <clipPath id="clip-path-2">
      <rect id="Rectangle_97" data-name="Rectangle 97" width="252" height="317" transform="translate(0.197 -0.169)" fill="#5977bb"/>
    </clipPath>
    <clipPath id="clip-path-3">
      <rect id="Rectangle_96" data-name="Rectangle 96" width="252" height="305" transform="translate(0.197 -0.169)" fill="#5977bb"/>
    </clipPath>
    <clipPath id="clip-path-4">
      <rect id="Rectangle_95" data-name="Rectangle 95" width="1082" height="305" transform="translate(0.197 -0.169)" fill="#5977bb"/>
    </clipPath>
  </defs>
  <g id="mark" transform="translate(-168.427 -129.317)" clip-path="url(#clip-path)">
    <g id="Group_327" data-name="Group 327" transform="translate(168.23 130.486)" clip-path="url(#clip-path-2)">
      <g id="Group_326" data-name="Group 326" transform="translate(0 0)" clip-path="url(#clip-path-3)">
        <g id="Group_325" data-name="Group 325" clip-path="url(#clip-path-4)">
          <path id="Path_325" data-name="Path 325" d="M405.425,90.207h0v68.7l32.007-33.268H467.82l-35.269,34.081,39.066,58.691H440.686l-25.5-41.655-9.762,9.47v32.186h-25.5V90.207Z" transform="translate(-95.828 -23.279)" fill="#5977bb"/>
          <path id="Path_326" data-name="Path 326" d="M533.7,218.415H508.2V90.207h25.5V218.415Z" transform="translate(-128.077 -23.279)" fill="#5977bb"/>
          <path id="Path_327" data-name="Path 327" d="M584.8,193.972h0a29.019,29.019,0,0,0,3.8,9.471,23.033,23.033,0,0,0,6.78,6.761,25.354,25.354,0,0,0,21.694,0,21.125,21.125,0,0,0,7.05-6.761,36.43,36.43,0,0,0,3.8-9.471A73.2,73.2,0,0,0,629,182.886a73.144,73.144,0,0,0-1.085-10.816,33.064,33.064,0,0,0-3.8-9.47,18.812,18.812,0,0,0-7.05-6.762,23.081,23.081,0,0,0-21.694,0,20.231,20.231,0,0,0-6.78,6.762,26.74,26.74,0,0,0-3.8,9.47,73.045,73.045,0,0,0-1.085,10.816,73.105,73.105,0,0,0,1.085,11.087Zm-23.058-31.1h0a41.883,41.883,0,0,1,24.685-25.423,57.587,57.587,0,0,1,39.609,0,42.58,42.58,0,0,1,15.194,10,41.588,41.588,0,0,1,9.762,15.42,52.627,52.627,0,0,1,3.525,20.015,53.1,53.1,0,0,1-3.525,20.286,42.436,42.436,0,0,1-24.956,24.89,57.587,57.587,0,0,1-39.609,0,40.759,40.759,0,0,1-15.194-9.741,41.206,41.206,0,0,1-9.491-15.149,53.084,53.084,0,0,1-3.525-20.286,52.612,52.612,0,0,1,3.525-20.015Z" transform="translate(-140.649 -34.271)" fill="#5977bb"/>
          <path id="Path_328" data-name="Path 328" d="M764.656,230.309h0V217.327h-.542a29.118,29.118,0,0,1-12.754,11.628,35.97,35.97,0,0,1-15.736,3.512c-6.78,0-12.483-.812-16.821-2.708a22.833,22.833,0,0,1-10.3-7.574,32.036,32.036,0,0,1-5.424-11.9,93.888,93.888,0,0,1-1.356-15.69V137.528h25.5v52.2c0,7.845,1.085,13.524,3.525,17.307s6.78,5.679,12.754,5.679c7.05,0,11.94-2.166,15.194-6.22,2.983-4.325,4.61-11.087,4.61-20.557V137.52h25.5v92.772H764.656v.016Z" transform="translate(-176.725 -35.173)" fill="#5977bb"/>
          <path id="Path_329" data-name="Path 329" d="M900.346,160.536h0a25.089,25.089,0,0,0-3.525-9.2,22.091,22.091,0,0,0-6.779-6.491,20.339,20.339,0,0,0-10.576-2.708,21.862,21.862,0,0,0-10.576,2.708,19.462,19.462,0,0,0-6.78,6.491,26.736,26.736,0,0,0-3.8,9.471,49.582,49.582,0,0,0-1.085,11.086,50.412,50.412,0,0,0,1.085,10.816,27.181,27.181,0,0,0,4.068,9.471,23.911,23.911,0,0,0,7.05,6.762,17.413,17.413,0,0,0,10.034,2.708q6.508,0,10.576-2.437a20.206,20.206,0,0,0,6.779-6.761,29.916,29.916,0,0,0,3.525-9.742,57.2,57.2,0,0,0,0-22.173Zm1.085,45.98h0c-2.983,4.866-6.779,8.658-11.668,10.816a40.082,40.082,0,0,1-16.55,3.241,39.169,39.169,0,0,1-18.177-4.054A34.24,34.24,0,0,1,842.01,205.7a46.2,46.2,0,0,1-7.864-15.961,70.547,70.547,0,0,1-2.711-18.661,64.607,64.607,0,0,1,2.711-17.848,41.607,41.607,0,0,1,7.864-15.42,38.4,38.4,0,0,1,46.4-11.358A28.322,28.322,0,0,1,900.346,137h.271V90.207h25.5V218.144H901.973V206.516Z" transform="translate(-209.335 -23.279)" fill="#5977bb"/>
          <path id="Path_330" data-name="Path 330" d="M996.365,206.151h0a13.366,13.366,0,0,0,4.61,4.867,14.566,14.566,0,0,0,6.237,2.708,20.245,20.245,0,0,0,7.054,1.083,20.648,20.648,0,0,0,5.69-.812,11.8,11.8,0,0,0,5.427-1.9,12.777,12.777,0,0,0,4.063-3.512,9.958,9.958,0,0,0,1.627-5.679c0-3.783-2.436-6.762-7.594-8.658a154.429,154.429,0,0,0-21.424-5.679c-3.531-.812-7.324-1.9-10.851-2.979a51.231,51.231,0,0,1-9.491-4.325,22.961,22.961,0,0,1-6.508-7.033,20.6,20.6,0,0,1-2.441-10.274c0-6.221,1.085-11.087,3.254-14.879a25.119,25.119,0,0,1,9.492-8.928,47.814,47.814,0,0,1,12.752-4.867,89.841,89.841,0,0,1,14.925-1.354,67.5,67.5,0,0,1,14.648,1.625,34.94,34.94,0,0,1,12.759,4.866,28.982,28.982,0,0,1,9.22,8.929c2.436,3.783,3.793,8.658,4.34,14.337h-24.415c-.27-4.867-2.174-8.387-5.427-10a27.657,27.657,0,0,0-11.941-2.708c-1.349,0-2.984.27-4.61.27a23,23,0,0,0-4.61,1.354,10.4,10.4,0,0,0-3.523,2.437,6.63,6.63,0,0,0-1.357,4.6,6.976,6.976,0,0,0,2.444,5.678,23.9,23.9,0,0,0,6.507,3.512c2.714.813,5.967,1.625,9.22,2.437,3.523.542,7.054,1.354,10.577,2.166a86.052,86.052,0,0,1,11.117,3.25,32.92,32.92,0,0,1,9.22,4.6,24.775,24.775,0,0,1,6.776,7.3,22.767,22.767,0,0,1,2.444,10.816c0,6.22-1.087,11.358-3.523,15.42a28.775,28.775,0,0,1-9.768,10,35.324,35.324,0,0,1-13.561,5.137,75.036,75.036,0,0,1-15.472,1.625,78.27,78.27,0,0,1-16-1.625,35.865,35.865,0,0,1-13.567-5.408,28.8,28.8,0,0,1-14.1-25.423h24.145a14.349,14.349,0,0,0,1.642,7.025Z" transform="translate(-244.315 -34.271)" fill="#5977bb"/>
          <path id="Path_331" data-name="Path 331" d="M1155.67,210.2h0a20.187,20.187,0,0,0,6.777-6.761,25.339,25.339,0,0,0,3.793-9.2,51.033,51.033,0,0,0,1.087-11.087,69,69,0,0,0-1.087-10.816,28.515,28.515,0,0,0-4.063-9.741,20.227,20.227,0,0,0-6.784-6.762,20.77,20.77,0,0,0-10.3-2.708,20.343,20.343,0,0,0-10.577,2.708,18.032,18.032,0,0,0-6.776,6.762,26.7,26.7,0,0,0-3.8,9.47,49.856,49.856,0,0,0-1.087,11.087,77.118,77.118,0,0,0,1.087,11.087,31.462,31.462,0,0,0,3.8,9.2,23.99,23.99,0,0,0,7.047,6.761,20.013,20.013,0,0,0,10.307,2.437q6.5,0,10.577-2.437Zm-33.1-73.569h0v11.9h.27c3.254-5.137,7.054-8.929,11.942-11.087a38.214,38.214,0,0,1,15.734-3.512,41.914,41.914,0,0,1,19,4.325,38.89,38.89,0,0,1,13.021,10.816,46.232,46.232,0,0,1,7.863,15.962,71,71,0,0,1,2.444,18.931,64.5,64.5,0,0,1-2.444,17.849,46.885,46.885,0,0,1-7.593,15.149,38.634,38.634,0,0,1-13.021,10.816,39.743,39.743,0,0,1-17.909,3.783,34.485,34.485,0,0,1-15.734-3.512,27.492,27.492,0,0,1-11.942-10.275h-.54v43.814h-25.5V136.635Z" transform="translate(-276.386 -34.271)" fill="#5977bb"/>
          <path id="Path_332" data-name="Path 332" d="M1260.635,193.972h0a28.961,28.961,0,0,0,3.793,9.471,20.26,20.26,0,0,0,6.776,6.761,25.354,25.354,0,0,0,21.694,0,24.021,24.021,0,0,0,7.054-6.761,28.417,28.417,0,0,0,3.523-9.471,49.421,49.421,0,0,0,1.087-11.087,48.608,48.608,0,0,0-1.087-10.816,26.43,26.43,0,0,0-3.523-9.47,21.041,21.041,0,0,0-7.054-6.762,23.081,23.081,0,0,0-21.694,0,18.087,18.087,0,0,0-6.776,6.762,26.691,26.691,0,0,0-3.793,9.47,48.593,48.593,0,0,0-1.087,10.816,49.407,49.407,0,0,0,1.087,11.087Zm-23.336-31.1h0a49.989,49.989,0,0,1,9.768-15.42,44.908,44.908,0,0,1,15.195-10,57.57,57.57,0,0,1,39.6,0,42.523,42.523,0,0,1,15.195,10,41.635,41.635,0,0,1,9.768,15.42,59.382,59.382,0,0,1,0,40.3,42.463,42.463,0,0,1-24.963,24.89,57.57,57.57,0,0,1-39.6,0,40.758,40.758,0,0,1-15.195-9.741,45.64,45.64,0,0,1-9.768-15.149,64.029,64.029,0,0,1,0-40.3Z" transform="translate(-310.549 -34.271)" fill="#5977bb"/>
          <path id="Path_333" data-name="Path 333" d="M1425.63,128.186h0v17.036h-18.718v45.709c0,4.325.817,7.3,2.167,8.658,1.356,1.625,4.34,2.166,8.68,2.166h4.071a18.34,18.34,0,0,1,3.793-.541v19.473a30.294,30.294,0,0,1-7.324.812,70.975,70.975,0,0,1-7.586.271,75.356,75.356,0,0,1-11.4-.812,24.914,24.914,0,0,1-9.22-3.25,18.643,18.643,0,0,1-6.507-6.491,27.356,27.356,0,0,1-2.166-11.358V145.222h-15.472V128.186h15.472V100.325h25.495v27.861Z" transform="translate(-343.707 -25.822)" fill="#5977bb"/>
          <path id="Path_334" data-name="Path 334" d="M112.2,163.292h0a9.909,9.909,0,0,0-9.943,9.913,9.943,9.943,0,0,0,19.887,0,9.9,9.9,0,0,0-9.944-9.913Z" transform="translate(-26.025 -41.652)" fill="#5977bb"/>
          <path id="Path_335" data-name="Path 335" d="M164.721,130.817h0C163.644,91.155,133,60.6,93.22,59.529,81.4,59.258,81.4,41.3,93.22,41.573c49.732,1.075,88.437,39.669,89.513,89.243.263,11.793-17.741,11.522-18.013,0Zm-33.6,4.284h0c-.806-24.661-19.9-43.683-44.621-44.224-11.562-.534-11.562-18.489,0-18.227,34.678,1.075,61.558,27.877,62.634,62.45.263,11.792-17.742,11.529-18.013,0Zm-18.276,1.879h0a23.527,23.527,0,0,1-7.256,13.935c-2.687,2.946-17.47,17.422-19.089,19.03a.271.271,0,0,1-.542,0c-6.18-6.163-12.63-12.326-18.818-18.76l-1.611-1.608a26.863,26.863,0,0,1-6.18-14.476,24.648,24.648,0,0,1,.271-7.772,26.491,26.491,0,0,1,9.138-15.814,27.789,27.789,0,0,1,15.055-6.163,34.377,34.377,0,0,1,7.527.271,28.033,28.033,0,0,1,16.131,9.65,27.326,27.326,0,0,1,5.374,21.706ZM202.356,33.794h0C164.449-3.726,96.442-10.964,51.015,16.913c-33.6,20.9-46.774,53.333-50.8,92.19-3.764,72.633,43.544,146.868,104.567,189.212,22.31,15.543,24.463-.27,19.352-5.358-10.486-10.988-34.407-39.932-37.636-50.386-6.722-22.248,1.882-36.715,25-36.453,13.978.271,27.956-.271,41.663-2.947,36.822-7.238,64.779-26.8,75.806-64.321,12.1-39.931,2.958-75.572-26.609-105.057Z" transform="translate(-0.318 -0.601)" fill="#5977bb"/>
        </g>
      </g>
    </g>
  </g>
</svg>
